<mxfile host="65bd71144e">
    <diagram id="rwI5ss-eohTI3qQGTdDy" name="Page-1">
        <mxGraphModel dx="352" dy="844" grid="1" gridSize="10" guides="1" tooltips="1" connect="1" arrows="1" fold="1" page="1" pageScale="1" pageWidth="1169" pageHeight="827" background="#FFFFFF" math="0" shadow="0">
            <root>
                <mxCell id="0"/>
                <mxCell id="1" parent="0"/>
                <mxCell id="32" value="Developer workstation (Windows/Linux/macOS)" style="rounded=0;whiteSpace=wrap;html=1;dashed=1;connectable=0;allowArrows=0;fillColor=none;verticalAlign=top;" parent="1" vertex="1">
                    <mxGeometry x="40" y="40" width="380" height="470" as="geometry"/>
                </mxCell>
                <mxCell id="23" value="Operator Host (Windows)" style="rounded=0;whiteSpace=wrap;html=1;dashed=1;connectable=0;allowArrows=0;fillColor=none;verticalAlign=top;" parent="1" vertex="1">
                    <mxGeometry x="480" y="40" width="360" height="470" as="geometry"/>
                </mxCell>
                <mxCell id="9" value="Compose" style="rounded=0;whiteSpace=wrap;html=1;dashed=1;connectable=0;allowArrows=0;fillColor=none;verticalAlign=top;" parent="1" vertex="1">
                    <mxGeometry x="500" y="80" width="160" height="410" as="geometry"/>
                </mxCell>
                <mxCell id="2" value="Operator plugin" style="rounded=0;whiteSpace=wrap;html=1;fontStyle=0;fillColor=#d5e8d4;strokeColor=#82b366;" parent="1" vertex="1">
                    <mxGeometry x="280" y="110" width="120" height="40" as="geometry"/>
                </mxCell>
                <mxCell id="28" value="" style="edgeStyle=none;html=1;startArrow=classic;startFill=1;" parent="1" source="6" target="7" edge="1">
                    <mxGeometry relative="1" as="geometry"/>
                </mxCell>
                <mxCell id="6" value="Developer" style="sketch=0;outlineConnect=0;fontColor=#232F3E;gradientColor=none;fillColor=#232F3D;strokeColor=none;dashed=0;verticalLabelPosition=bottom;verticalAlign=top;align=center;html=1;fontSize=12;fontStyle=0;aspect=fixed;pointerEvents=1;shape=mxgraph.aws4.user;" parent="1" vertex="1">
                    <mxGeometry x="60" y="130" width="40" height="40" as="geometry"/>
                </mxCell>
                <mxCell id="7" value="Sitecore CLI" style="rounded=0;whiteSpace=wrap;html=1;fillColor=#f8cecc;strokeColor=#b85450;" parent="1" vertex="1">
                    <mxGeometry x="160" y="110" width="120" height="80" as="geometry"/>
                </mxCell>
                <mxCell id="8" value="Operator API" style="rounded=0;whiteSpace=wrap;html=1;fontStyle=0;fillColor=#d5e8d4;strokeColor=#82b366;" parent="1" vertex="1">
                    <mxGeometry x="520" y="110" width="120" height="80" as="geometry"/>
                </mxCell>
                <mxCell id="13" value="Docker engine" style="rounded=0;whiteSpace=wrap;html=1;fontStyle=0;fillColor=#f5f5f5;fontColor=#333333;strokeColor=#666666;" parent="1" vertex="1">
                    <mxGeometry x="700" y="110" width="120" height="80" as="geometry"/>
                </mxCell>
                <mxCell id="14" style="edgeStyle=none;html=1;entryX=0;entryY=0.5;entryDx=0;entryDy=0;startArrow=classic;startFill=1;" parent="1" target="13" edge="1">
                    <mxGeometry relative="1" as="geometry">
                        <mxPoint x="640" y="150" as="sourcePoint"/>
                        <mxPoint x="720" y="149.66" as="targetPoint"/>
                        <Array as="points">
                            <mxPoint x="690" y="150"/>
                        </Array>
                    </mxGeometry>
                </mxCell>
                <mxCell id="16" value="Traefik proxy" style="rounded=0;whiteSpace=wrap;html=1;fontStyle=0;fillColor=#f5f5f5;fontColor=#333333;strokeColor=#666666;" parent="1" vertex="1">
                    <mxGeometry x="520" y="210" width="120" height="40" as="geometry"/>
                </mxCell>
                <mxCell id="18" value="Container A" style="rounded=0;whiteSpace=wrap;html=1;fontStyle=0;fillColor=#d5e8d4;strokeColor=#82b366;" parent="1" vertex="1">
                    <mxGeometry x="700" y="210" width="120" height="40" as="geometry"/>
                </mxCell>
                <mxCell id="21" value="Container B" style="rounded=0;whiteSpace=wrap;html=1;fontStyle=0;fillColor=#d5e8d4;strokeColor=#82b366;" parent="1" vertex="1">
                    <mxGeometry x="700" y="260" width="120" height="40" as="geometry"/>
                </mxCell>
                <mxCell id="24" value="Container C" style="rounded=0;whiteSpace=wrap;html=1;fontStyle=0;fillColor=#d5e8d4;strokeColor=#82b366;" parent="1" vertex="1">
                    <mxGeometry x="700" y="310" width="120" height="40" as="geometry"/>
                </mxCell>
                <mxCell id="25" style="edgeStyle=none;html=1;startArrow=classic;startFill=1;exitX=1;exitY=0.5;exitDx=0;exitDy=0;entryX=0;entryY=0.5;entryDx=0;entryDy=0;" parent="1" source="16" target="13" edge="1">
                    <mxGeometry relative="1" as="geometry">
                        <mxPoint x="650" y="160" as="sourcePoint"/>
                        <mxPoint x="680" y="230" as="targetPoint"/>
                        <Array as="points">
                            <mxPoint x="670" y="230"/>
                            <mxPoint x="680" y="230"/>
                            <mxPoint x="680" y="150"/>
                        </Array>
                    </mxGeometry>
                </mxCell>
                <mxCell id="33" value="&lt;h1&gt;Flow&lt;/h1&gt;&lt;div style=&quot;font-size: 11px&quot;&gt;&lt;font style=&quot;font-size: 11px&quot;&gt;1. Developer requests new instance using plugin commands&lt;/font&gt;&lt;/div&gt;&lt;div style=&quot;font-size: 11px&quot;&gt;&lt;span&gt;2. Gets instance url, updates &quot;Sitecore.InstanceUri&quot; in config&lt;/span&gt;&lt;/div&gt;&lt;div style=&quot;font-size: 11px&quot;&gt;&lt;span&gt;3. Authenticates with dotnet sitecore login using instance url&lt;/span&gt;&lt;/div&gt;&lt;div style=&quot;font-size: 11px&quot;&gt;&lt;font style=&quot;font-size: 11px&quot;&gt;&lt;br&gt;&lt;/font&gt;&lt;/div&gt;&lt;div style=&quot;font-size: 11px&quot;&gt;&lt;font style=&quot;font-size: 11px&quot;&gt;Then&lt;/font&gt;&lt;/div&gt;&lt;div style=&quot;font-size: 11px&quot;&gt;&lt;font style=&quot;font-size: 11px&quot;&gt;&lt;br&gt;&lt;/font&gt;&lt;/div&gt;&lt;div style=&quot;font-size: 11px&quot;&gt;&lt;font style=&quot;font-size: 11px&quot;&gt;- Runs normal dotnet sitecore push/pull/publish commands&lt;/font&gt;&lt;/div&gt;&lt;div style=&quot;font-size: 11px&quot;&gt;&lt;font style=&quot;font-size: 11px&quot;&gt;- Rendering host now gets layout service response from new instance&lt;/font&gt;&lt;/div&gt;" style="text;html=1;strokeColor=none;fillColor=none;spacing=5;spacingTop=-20;whiteSpace=wrap;overflow=hidden;rounded=0;dashed=1;" parent="1" vertex="1">
                    <mxGeometry x="50" y="310" width="360" height="190" as="geometry"/>
                </mxCell>
                <mxCell id="37" style="edgeStyle=orthogonalEdgeStyle;html=1;entryX=0;entryY=0.5;entryDx=0;entryDy=0;fontSize=11;startArrow=classic;startFill=1;" parent="1" source="34" target="24" edge="1">
                    <mxGeometry relative="1" as="geometry">
                        <Array as="points">
                            <mxPoint x="450" y="250"/>
                            <mxPoint x="450" y="330"/>
                        </Array>
                    </mxGeometry>
                </mxCell>
                <mxCell id="34" value="Rendering host&lt;br&gt;project" style="rounded=0;whiteSpace=wrap;html=1;fillColor=#dae8fc;strokeColor=#6c8ebf;" parent="1" vertex="1">
                    <mxGeometry x="160" y="210" width="120" height="80" as="geometry"/>
                </mxCell>
                <mxCell id="40" style="edgeStyle=orthogonalEdgeStyle;html=1;entryX=0;entryY=0.5;entryDx=0;entryDy=0;fontSize=11;startArrow=classic;startFill=1;" parent="1" source="6" target="34" edge="1">
                    <mxGeometry relative="1" as="geometry">
                        <mxPoint x="290" y="260.0000000000001" as="sourcePoint"/>
                        <mxPoint x="709.9999999999998" y="339.9999999999999" as="targetPoint"/>
                        <Array as="points">
                            <mxPoint x="130" y="150"/>
                            <mxPoint x="130" y="250"/>
                        </Array>
                    </mxGeometry>
                </mxCell>
                <mxCell id="43" style="edgeStyle=orthogonalEdgeStyle;html=1;entryX=0;entryY=0.25;entryDx=0;entryDy=0;fontSize=11;startArrow=classic;startFill=1;" parent="1" target="8" edge="1">
                    <mxGeometry relative="1" as="geometry">
                        <mxPoint x="400" y="130" as="sourcePoint"/>
                        <mxPoint x="709.9999999999998" y="339.9999999999999" as="targetPoint"/>
                        <Array as="points">
                            <mxPoint x="490" y="130"/>
                            <mxPoint x="490" y="130"/>
                        </Array>
                    </mxGeometry>
                </mxCell>
                <mxCell id="44" value="http" style="edgeLabel;html=1;align=center;verticalAlign=middle;resizable=0;points=[];fontSize=11;" parent="43" vertex="1" connectable="0">
                    <mxGeometry x="-0.5262" y="3" relative="1" as="geometry">
                        <mxPoint x="21" y="3" as="offset"/>
                    </mxGeometry>
                </mxCell>
                <mxCell id="45" style="edgeStyle=orthogonalEdgeStyle;html=1;entryX=0;entryY=0.5;entryDx=0;entryDy=0;fontSize=11;startArrow=classic;startFill=1;exitX=1;exitY=0.75;exitDx=0;exitDy=0;" parent="1" source="7" target="24" edge="1">
                    <mxGeometry relative="1" as="geometry">
                        <mxPoint x="410" y="140" as="sourcePoint"/>
                        <mxPoint x="530" y="160" as="targetPoint"/>
                        <Array as="points">
                            <mxPoint x="450" y="170"/>
                            <mxPoint x="450" y="330"/>
                        </Array>
                    </mxGeometry>
                </mxCell>
                <mxCell id="46" value="http" style="edgeLabel;html=1;align=center;verticalAlign=middle;resizable=0;points=[];fontSize=11;" parent="45" vertex="1" connectable="0">
                    <mxGeometry x="-0.5262" y="3" relative="1" as="geometry">
                        <mxPoint x="32" y="33" as="offset"/>
                    </mxGeometry>
                </mxCell>
                <mxCell id="47" value="http" style="edgeLabel;html=1;align=center;verticalAlign=middle;resizable=0;points=[];fontSize=11;" parent="45" vertex="1" connectable="0">
                    <mxGeometry x="-0.0454" y="-1" relative="1" as="geometry">
                        <mxPoint x="1" y="13" as="offset"/>
                    </mxGeometry>
                </mxCell>
                <mxCell id="48" value="" style="rounded=0;whiteSpace=wrap;html=1;connectable=0;allowArrows=0;fillColor=none;verticalAlign=top;" vertex="1" parent="1">
                    <mxGeometry x="20" y="15" width="840" height="515" as="geometry"/>
                </mxCell>
            </root>
        </mxGraphModel>
    </diagram>
</mxfile>